solid OpenSCAD_Model
  facet normal -1.000000 -0.000000 -0.000000
    outer loop
      vertex -21.500000 -21.500000 -3.500000
      vertex -21.500000 -21.500000 3.500000
      vertex -21.500000 21.500000 -3.500000
    endloop
  endfacet
  facet normal -1.000000 0.000000 0.000000
    outer loop
      vertex -21.500000 21.500000 -3.500000
      vertex -21.500000 -21.500000 3.500000
      vertex -21.500000 21.500000 3.500000
    endloop
  endfacet
  facet normal 0.000000 -1.000000 0.000000
    outer loop
      vertex -21.500000 -21.500000 3.500000
      vertex -21.500000 -21.500000 -3.500000
      vertex -15.000000 -21.500000 -3.500000
    endloop
  endfacet
  facet normal 0.000000 -1.000000 0.000000
    outer loop
      vertex 15.000000 -21.500000 1.000000
      vertex -21.500000 -21.500000 3.500000
      vertex -15.000000 -21.500000 1.000000
    endloop
  endfacet
  facet normal 0.000000 -1.000000 0.000000
    outer loop
      vertex -15.000000 -21.500000 1.000000
      vertex -21.500000 -21.500000 3.500000
      vertex -15.000000 -21.500000 -3.500000
    endloop
  endfacet
  facet normal 0.000000 -1.000000 0.000000
    outer loop
      vertex 21.598336 -21.500000 2.564397
      vertex -21.500000 -21.500000 3.500000
      vertex 15.000000 -21.500000 1.000000
    endloop
  endfacet
  facet normal 0.000000 -1.000000 0.000000
    outer loop
      vertex 36.400000 -21.500000 -3.500000
      vertex 15.000000 -21.500000 1.000000
      vertex 15.000000 -21.500000 -3.500000
    endloop
  endfacet
  facet normal 0.000000 -1.000000 0.000000
    outer loop
      vertex 25.529622 -21.500000 -0.975349
      vertex 15.000000 -21.500000 1.000000
      vertex 36.400000 -21.500000 -3.500000
    endloop
  endfacet
  facet normal 0.000000 -1.000000 0.000000
    outer loop
      vertex 36.400000 -21.500000 3.500000
      vertex 30.110955 -21.500000 1.669685
      vertex 36.400000 -21.500000 -3.500000
    endloop
  endfacet
  facet normal 0.000000 -1.000000 0.000000
    outer loop
      vertex 30.110955 -21.500000 1.669685
      vertex 29.011088 -21.500000 0.155848
      vertex 36.400000 -21.500000 -3.500000
    endloop
  endfacet
  facet normal 0.000000 -1.000000 0.000000
    outer loop
      vertex 29.011088 -21.500000 0.155848
      vertex 27.390576 -21.500000 -0.779754
      vertex 36.400000 -21.500000 -3.500000
    endloop
  endfacet
  facet normal 0.000000 -1.000000 0.000000
    outer loop
      vertex 27.390576 -21.500000 -0.779754
      vertex 25.529622 -21.500000 -0.975349
      vertex 36.400000 -21.500000 -3.500000
    endloop
  endfacet
  facet normal 0.000000 -1.000000 0.000000
    outer loop
      vertex 23.750000 -21.500000 -0.397114
      vertex 15.000000 -21.500000 1.000000
      vertex 25.529622 -21.500000 -0.975349
    endloop
  endfacet
  facet normal 0.000000 -1.000000 0.000000
    outer loop
      vertex 22.359424 -21.500000 0.854966
      vertex 21.598336 -21.500000 2.564397
      vertex 15.000000 -21.500000 1.000000
    endloop
  endfacet
  facet normal 0.000000 -1.000000 0.000000
    outer loop
      vertex 21.598336 -21.500000 3.500000
      vertex -21.500000 -21.500000 3.500000
      vertex 21.598336 -21.500000 2.564397
    endloop
  endfacet
  facet normal 0.000000 -1.000000 0.000000
    outer loop
      vertex 30.500000 -21.500000 3.500000
      vertex 30.110955 -21.500000 1.669685
      vertex 36.400000 -21.500000 3.500000
    endloop
  endfacet
  facet normal 0.000000 -1.000000 0.000000
    outer loop
      vertex 23.750000 -21.500000 -0.397114
      vertex 22.359424 -21.500000 0.854966
      vertex 15.000000 -21.500000 1.000000
    endloop
  endfacet
  facet normal 0.000000 -0.000000 -1.000000
    outer loop
      vertex -14.550000 17.145448 -3.500000
      vertex -21.500000 21.500000 -3.500000
      vertex 36.400000 21.500000 -3.500000
    endloop
  endfacet
  facet normal -0.000000 0.000000 -1.000000
    outer loop
      vertex 34.900000 -16.300000 -3.500000
      vertex 36.400000 21.500000 -3.500000
      vertex 36.400000 -21.500000 -3.500000
    endloop
  endfacet
  facet normal 0.000000 0.000000 -1.000000
    outer loop
      vertex 4.500000 -25.950000 -3.500000
      vertex 15.000000 -44.000000 -3.500000
      vertex 4.500000 -44.000000 -3.500000
    endloop
  endfacet
  facet normal 0.000000 0.000000 -1.000000
    outer loop
      vertex 15.000000 -21.500000 -3.500000
      vertex 15.000000 -44.000000 -3.500000
      vertex 4.500000 -25.950000 -3.500000
    endloop
  endfacet
  facet normal 0.000000 0.000000 -1.000000
    outer loop
      vertex 15.000000 -21.500000 -3.500000
      vertex 4.500000 -25.950000 -3.500000
      vertex -15.000000 -21.500000 -3.500000
    endloop
  endfacet
  facet normal 0.000000 0.000000 -1.000000
    outer loop
      vertex -4.500000 -44.000000 -3.500000
      vertex -15.000000 -21.500000 -3.500000
      vertex -4.500000 -25.950000 -3.500000
    endloop
  endfacet
  facet normal 0.000000 0.000000 -1.000000
    outer loop
      vertex 4.500000 -25.950000 -3.500000
      vertex -4.500000 -25.950000 -3.500000
      vertex -15.000000 -21.500000 -3.500000
    endloop
  endfacet
  facet normal -0.000000 0.000000 -1.000000
    outer loop
      vertex 10.049000 4.474103 -3.500000
      vertex 30.717868 17.254544 -3.500000
      vertex 10.759624 2.287029 -3.500000
    endloop
  endfacet
  facet normal 0.000000 -0.000000 -1.000000
    outer loop
      vertex -21.500000 -21.500000 -3.500000
      vertex -21.500000 21.500000 -3.500000
      vertex -17.400000 -15.500000 -3.500000
    endloop
  endfacet
  facet normal -0.000000 0.000000 -1.000000
    outer loop
      vertex -21.500000 -21.500000 -3.500000
      vertex -17.400000 -15.500000 -3.500000
      vertex -15.000000 -21.500000 -3.500000
    endloop
  endfacet
  facet normal 0.000000 0.000000 -1.000000
    outer loop
      vertex -14.550000 -17.145448 -3.500000
      vertex -15.000000 -21.500000 -3.500000
      vertex -16.450000 -17.145448 -3.500000
    endloop
  endfacet
  facet normal 0.000000 0.000000 -1.000000
    outer loop
      vertex -17.400000 -15.500000 -3.500000
      vertex -16.450000 -17.145448 -3.500000
      vertex -15.000000 -21.500000 -3.500000
    endloop
  endfacet
  facet normal -0.000000 -0.000000 -1.000000
    outer loop
      vertex -16.450000 -13.854552 -3.500000
      vertex -21.500000 21.500000 -3.500000
      vertex -14.550000 -13.854552 -3.500000
    endloop
  endfacet
  facet normal 0.000000 0.000000 -1.000000
    outer loop
      vertex -1.149813 -10.939741 -3.500000
      vertex -15.000000 -21.500000 -3.500000
      vertex -3.399187 -10.461622 -3.500000
    endloop
  endfacet
  facet normal -0.000000 -0.000000 -1.000000
    outer loop
      vertex -14.550000 -13.854552 -3.500000
      vertex -21.500000 21.500000 -3.500000
      vertex -13.600000 -15.500000 -3.500000
    endloop
  endfacet
  facet normal 0.000000 0.000000 -1.000000
    outer loop
      vertex -3.399187 -10.461622 -3.500000
      vertex -14.550000 -17.145448 -3.500000
      vertex -5.500000 -9.526279 -3.500000
    endloop
  endfacet
  facet normal -0.000000 0.000000 -1.000000
    outer loop
      vertex -13.600000 15.500000 -3.500000
      vertex 36.400000 21.500000 -3.500000
      vertex -14.550000 13.854552 -3.500000
    endloop
  endfacet
  facet normal 0.000000 0.000000 -1.000000
    outer loop
      vertex -13.600000 -15.500000 -3.500000
      vertex -21.500000 21.500000 -3.500000
      vertex -17.400000 15.500000 -3.500000
    endloop
  endfacet
  facet normal 0.000000 0.000000 -1.000000
    outer loop
      vertex -13.600000 -15.500000 -3.500000
      vertex -17.400000 15.500000 -3.500000
      vertex -16.450000 13.854552 -3.500000
    endloop
  endfacet
  facet normal 0.000000 0.000000 -1.000000
    outer loop
      vertex -13.600000 -15.500000 -3.500000
      vertex -16.450000 13.854552 -3.500000
      vertex -14.550000 13.854552 -3.500000
    endloop
  endfacet
  facet normal 0.000000 -0.000000 -1.000000
    outer loop
      vertex 14.550000 17.145448 -3.500000
      vertex -14.550000 13.854552 -3.500000
      vertex 36.400000 21.500000 -3.500000
    endloop
  endfacet
  facet normal -0.000000 0.000000 -1.000000
    outer loop
      vertex -14.550000 17.145448 -3.500000
      vertex 36.400000 21.500000 -3.500000
      vertex -13.600000 15.500000 -3.500000
    endloop
  endfacet
  facet normal -0.000000 -0.000000 -1.000000
    outer loop
      vertex -16.450000 17.145448 -3.500000
      vertex -21.500000 21.500000 -3.500000
      vertex -14.550000 17.145448 -3.500000
    endloop
  endfacet
  facet normal 0.000000 0.000000 -1.000000
    outer loop
      vertex -5.500000 -9.526279 -3.500000
      vertex -13.600000 -15.500000 -3.500000
      vertex -7.360437 -8.174593 -3.500000
    endloop
  endfacet
  facet normal 0.000000 -0.000000 -1.000000
    outer loop
      vertex -17.400000 15.500000 -3.500000
      vertex -21.500000 21.500000 -3.500000
      vertex -16.450000 17.145448 -3.500000
    endloop
  endfacet
  facet normal 0.000000 -0.000000 -1.000000
    outer loop
      vertex -13.600000 -15.500000 -3.500000
      vertex -14.550000 13.854552 -3.500000
      vertex -11.000000 0.000000 -3.500000
    endloop
  endfacet
  facet normal 0.000000 0.000000 -1.000000
    outer loop
      vertex -13.600000 -15.500000 -3.500000
      vertex -11.000000 0.000000 -3.500000
      vertex -10.759624 -2.287029 -3.500000
    endloop
  endfacet
  facet normal 0.000000 0.000000 -1.000000
    outer loop
      vertex -13.600000 -15.500000 -3.500000
      vertex -10.759624 -2.287029 -3.500000
      vertex -10.049000 -4.474103 -3.500000
    endloop
  endfacet
  facet normal 0.000000 0.000000 -1.000000
    outer loop
      vertex -13.600000 -15.500000 -3.500000
      vertex -10.049000 -4.474103 -3.500000
      vertex -8.899187 -6.465638 -3.500000
    endloop
  endfacet
  facet normal 0.000000 0.000000 -1.000000
    outer loop
      vertex -13.600000 -15.500000 -3.500000
      vertex -8.899187 -6.465638 -3.500000
      vertex -7.360437 -8.174593 -3.500000
    endloop
  endfacet
  facet normal 0.000000 0.000000 -1.000000
    outer loop
      vertex -14.550000 -17.145448 -3.500000
      vertex -13.600000 -15.500000 -3.500000
      vertex -5.500000 -9.526279 -3.500000
    endloop
  endfacet
  facet normal 0.000000 0.000000 -1.000000
    outer loop
      vertex -15.000000 -21.500000 -3.500000
      vertex -14.550000 -17.145448 -3.500000
      vertex -3.399187 -10.461622 -3.500000
    endloop
  endfacet
  facet normal -0.000000 0.000000 -1.000000
    outer loop
      vertex -15.000000 -21.500000 -3.500000
      vertex -1.149813 -10.939741 -3.500000
      vertex 15.000000 -21.500000 -3.500000
    endloop
  endfacet
  facet normal 0.000000 0.000000 -1.000000
    outer loop
      vertex -1.149813 -10.939741 -3.500000
      vertex 1.149813 -10.939741 -3.500000
      vertex 15.000000 -21.500000 -3.500000
    endloop
  endfacet
  facet normal -0.000000 0.000000 -1.000000
    outer loop
      vertex 1.149813 -10.939741 -3.500000
      vertex 3.399187 -10.461622 -3.500000
      vertex 15.000000 -21.500000 -3.500000
    endloop
  endfacet
  facet normal -0.000000 0.000000 -1.000000
    outer loop
      vertex 3.399187 -10.461622 -3.500000
      vertex 5.500000 -9.526279 -3.500000
      vertex 15.000000 -21.500000 -3.500000
    endloop
  endfacet
  facet normal -0.000000 0.000000 -1.000000
    outer loop
      vertex 32.210454 18.444841 -3.500000
      vertex 36.400000 21.500000 -3.500000
      vertex 34.071678 18.020029 -3.500000
    endloop
  endfacet
  facet normal -0.000000 0.000000 -1.000000
    outer loop
      vertex 5.500000 -9.526279 -3.500000
      vertex 7.360437 -8.174593 -3.500000
      vertex 15.000000 -21.500000 -3.500000
    endloop
  endfacet
  facet normal 0.000000 0.000000 -1.000000
    outer loop
      vertex 10.049000 4.474103 -3.500000
      vertex 32.210454 18.444841 -3.500000
      vertex 30.717868 17.254544 -3.500000
    endloop
  endfacet
  facet normal -0.000000 0.000000 -1.000000
    outer loop
      vertex 8.899187 6.465638 -3.500000
      vertex 36.400000 21.500000 -3.500000
      vertex 10.049000 4.474103 -3.500000
    endloop
  endfacet
  facet normal -0.000000 0.000000 -1.000000
    outer loop
      vertex 7.360437 8.174593 -3.500000
      vertex 36.400000 21.500000 -3.500000
      vertex 8.899187 6.465638 -3.500000
    endloop
  endfacet
  facet normal -0.000000 0.000000 -1.000000
    outer loop
      vertex 5.500000 9.526279 -3.500000
      vertex 36.400000 21.500000 -3.500000
      vertex 7.360437 8.174593 -3.500000
    endloop
  endfacet
  facet normal -0.000000 -0.000000 -1.000000
    outer loop
      vertex -1.149813 10.939741 -3.500000
      vertex -14.550000 13.854552 -3.500000
      vertex 1.149813 10.939741 -3.500000
    endloop
  endfacet
  facet normal -0.000000 0.000000 -1.000000
    outer loop
      vertex 17.400000 15.500000 -3.500000
      vertex 36.400000 21.500000 -3.500000
      vertex 16.450000 13.854552 -3.500000
    endloop
  endfacet
  facet normal -0.000000 0.000000 -1.000000
    outer loop
      vertex 14.550000 -13.854552 -3.500000
      vertex 32.210454 14.155159 -3.500000
      vertex 16.450000 -13.854552 -3.500000
    endloop
  endfacet
  facet normal 0.000000 0.000000 -1.000000
    outer loop
      vertex 30.717868 15.345456 -3.500000
      vertex 10.759624 -2.287029 -3.500000
      vertex 11.000000 0.000000 -3.500000
    endloop
  endfacet
  facet normal 0.000000 -0.000000 -1.000000
    outer loop
      vertex -3.399187 10.461622 -3.500000
      vertex -14.550000 13.854552 -3.500000
      vertex -1.149813 10.939741 -3.500000
    endloop
  endfacet
  facet normal 0.000000 -0.000000 -1.000000
    outer loop
      vertex -5.500000 9.526279 -3.500000
      vertex -14.550000 13.854552 -3.500000
      vertex -3.399187 10.461622 -3.500000
    endloop
  endfacet
  facet normal 0.000000 -0.000000 -1.000000
    outer loop
      vertex -7.360437 8.174593 -3.500000
      vertex -14.550000 13.854552 -3.500000
      vertex -5.500000 9.526279 -3.500000
    endloop
  endfacet
  facet normal 0.000000 -0.000000 -1.000000
    outer loop
      vertex -8.899187 6.465638 -3.500000
      vertex -14.550000 13.854552 -3.500000
      vertex -7.360437 8.174593 -3.500000
    endloop
  endfacet
  facet normal 0.000000 -0.000000 -1.000000
    outer loop
      vertex -10.049000 4.474103 -3.500000
      vertex -14.550000 13.854552 -3.500000
      vertex -8.899187 6.465638 -3.500000
    endloop
  endfacet
  facet normal 0.000000 -0.000000 -1.000000
    outer loop
      vertex -10.759624 2.287029 -3.500000
      vertex -14.550000 13.854552 -3.500000
      vertex -10.049000 4.474103 -3.500000
    endloop
  endfacet
  facet normal 0.000000 -0.000000 -1.000000
    outer loop
      vertex -11.000000 0.000000 -3.500000
      vertex -14.550000 13.854552 -3.500000
      vertex -10.759624 2.287029 -3.500000
    endloop
  endfacet
  facet normal 0.000000 -0.000000 -1.000000
    outer loop
      vertex 13.600000 15.500000 -3.500000
      vertex -14.550000 13.854552 -3.500000
      vertex 14.550000 17.145448 -3.500000
    endloop
  endfacet
  facet normal 0.000000 0.000000 -1.000000
    outer loop
      vertex 7.360437 -8.174593 -3.500000
      vertex 13.600000 -15.500000 -3.500000
      vertex 15.000000 -21.500000 -3.500000
    endloop
  endfacet
  facet normal -0.000000 0.000000 -1.000000
    outer loop
      vertex 16.450000 17.145448 -3.500000
      vertex 36.400000 21.500000 -3.500000
      vertex 17.400000 15.500000 -3.500000
    endloop
  endfacet
  facet normal 0.000000 0.000000 -1.000000
    outer loop
      vertex 13.600000 -15.500000 -3.500000
      vertex 14.550000 -17.145448 -3.500000
      vertex 15.000000 -21.500000 -3.500000
    endloop
  endfacet
  facet normal 0.000000 0.000000 -1.000000
    outer loop
      vertex 34.071678 14.579971 -3.500000
      vertex 15.000000 -21.500000 -3.500000
      vertex 17.400000 -15.500000 -3.500000
    endloop
  endfacet
  facet normal 0.000000 0.000000 -1.000000
    outer loop
      vertex 14.550000 -17.145448 -3.500000
      vertex 16.450000 -17.145448 -3.500000
      vertex 15.000000 -21.500000 -3.500000
    endloop
  endfacet
  facet normal -0.000000 0.000000 -1.000000
    outer loop
      vertex 16.450000 -17.145448 -3.500000
      vertex 17.400000 -15.500000 -3.500000
      vertex 15.000000 -21.500000 -3.500000
    endloop
  endfacet
  facet normal 0.000000 0.000000 -1.000000
    outer loop
      vertex 34.071678 14.579971 -3.500000
      vertex 17.400000 -15.500000 -3.500000
      vertex 16.450000 -13.854552 -3.500000
    endloop
  endfacet
  facet normal 0.000000 0.000000 -1.000000
    outer loop
      vertex 7.360437 -8.174593 -3.500000
      vertex 14.550000 -13.854552 -3.500000
      vertex 13.600000 -15.500000 -3.500000
    endloop
  endfacet
  facet normal 0.000000 -0.000000 -1.000000
    outer loop
      vertex 1.149813 10.939741 -3.500000
      vertex -14.550000 13.854552 -3.500000
      vertex 13.600000 15.500000 -3.500000
    endloop
  endfacet
  facet normal 0.000000 0.000000 -1.000000
    outer loop
      vertex 30.717868 15.345456 -3.500000
      vertex 11.000000 0.000000 -3.500000
      vertex 10.759624 2.287029 -3.500000
    endloop
  endfacet
  facet normal 0.000000 -0.000000 -1.000000
    outer loop
      vertex 5.500000 9.526279 -3.500000
      vertex 3.399187 10.461622 -3.500000
      vertex 14.550000 13.854552 -3.500000
    endloop
  endfacet
  facet normal 0.000000 0.000000 -1.000000
    outer loop
      vertex 5.500000 9.526279 -3.500000
      vertex 14.550000 13.854552 -3.500000
      vertex 16.450000 13.854552 -3.500000
    endloop
  endfacet
  facet normal 0.000000 0.000000 -1.000000
    outer loop
      vertex 5.500000 9.526279 -3.500000
      vertex 16.450000 13.854552 -3.500000
      vertex 36.400000 21.500000 -3.500000
    endloop
  endfacet
  facet normal 0.000000 0.000000 -1.000000
    outer loop
      vertex 14.550000 13.854552 -3.500000
      vertex 3.399187 10.461622 -3.500000
      vertex 1.149813 10.939741 -3.500000
    endloop
  endfacet
  facet normal 0.000000 0.000000 -1.000000
    outer loop
      vertex 34.071678 -18.020029 -3.500000
      vertex 36.400000 -21.500000 -3.500000
      vertex 32.210454 -18.444841 -3.500000
    endloop
  endfacet
  facet normal 0.000000 0.000000 -1.000000
    outer loop
      vertex 14.550000 13.854552 -3.500000
      vertex 1.149813 10.939741 -3.500000
      vertex 13.600000 15.500000 -3.500000
    endloop
  endfacet
  facet normal 0.000000 -0.000000 -1.000000
    outer loop
      vertex 16.450000 17.145448 -3.500000
      vertex 14.550000 17.145448 -3.500000
      vertex 36.400000 21.500000 -3.500000
    endloop
  endfacet
  facet normal -0.000000 0.000000 -1.000000
    outer loop
      vertex 34.900000 16.300000 -3.500000
      vertex 36.400000 21.500000 -3.500000
      vertex 30.717868 -15.345456 -3.500000
    endloop
  endfacet
  facet normal 0.000000 0.000000 -1.000000
    outer loop
      vertex 15.000000 -21.500000 -3.500000
      vertex 30.717868 -15.345456 -3.500000
      vertex 30.717868 -17.254544 -3.500000
    endloop
  endfacet
  facet normal 0.000000 0.000000 -1.000000
    outer loop
      vertex 30.717868 15.345456 -3.500000
      vertex 10.049000 -4.474103 -3.500000
      vertex 10.759624 -2.287029 -3.500000
    endloop
  endfacet
  facet normal 0.000000 0.000000 -1.000000
    outer loop
      vertex 15.000000 -21.500000 -3.500000
      vertex 30.717868 -17.254544 -3.500000
      vertex 32.210454 -18.444841 -3.500000
    endloop
  endfacet
  facet normal -0.000000 0.000000 -1.000000
    outer loop
      vertex 15.000000 -21.500000 -3.500000
      vertex 32.210454 -18.444841 -3.500000
      vertex 36.400000 -21.500000 -3.500000
    endloop
  endfacet
  facet normal 0.000000 0.000000 -1.000000
    outer loop
      vertex 30.717868 15.345456 -3.500000
      vertex 7.360437 -8.174593 -3.500000
      vertex 8.899187 -6.465638 -3.500000
    endloop
  endfacet
  facet normal -0.000000 0.000000 -1.000000
    outer loop
      vertex 34.071678 -14.579971 -3.500000
      vertex 36.400000 21.500000 -3.500000
      vertex 34.900000 -16.300000 -3.500000
    endloop
  endfacet
  facet normal 0.000000 0.000000 -1.000000
    outer loop
      vertex 30.717868 15.345456 -3.500000
      vertex 8.899187 -6.465638 -3.500000
      vertex 10.049000 -4.474103 -3.500000
    endloop
  endfacet
  facet normal -0.000000 0.000000 -1.000000
    outer loop
      vertex 34.071678 -18.020029 -3.500000
      vertex 34.900000 -16.300000 -3.500000
      vertex 36.400000 -21.500000 -3.500000
    endloop
  endfacet
  facet normal -0.000000 0.000000 -1.000000
    outer loop
      vertex 32.210454 -14.155159 -3.500000
      vertex 36.400000 21.500000 -3.500000
      vertex 34.071678 -14.579971 -3.500000
    endloop
  endfacet
  facet normal 0.000000 0.000000 -1.000000
    outer loop
      vertex 30.717868 -15.345456 -3.500000
      vertex 36.400000 21.500000 -3.500000
      vertex 32.210454 -14.155159 -3.500000
    endloop
  endfacet
  facet normal 0.000000 0.000000 -1.000000
    outer loop
      vertex 30.717868 15.345456 -3.500000
      vertex 10.759624 2.287029 -3.500000
      vertex 30.717868 17.254544 -3.500000
    endloop
  endfacet
  facet normal 0.000000 0.000000 -1.000000
    outer loop
      vertex 32.210454 14.155159 -3.500000
      vertex 14.550000 -13.854552 -3.500000
      vertex 30.717868 15.345456 -3.500000
    endloop
  endfacet
  facet normal -0.000000 0.000000 -1.000000
    outer loop
      vertex 7.360437 -8.174593 -3.500000
      vertex 30.717868 15.345456 -3.500000
      vertex 14.550000 -13.854552 -3.500000
    endloop
  endfacet
  facet normal -0.000000 0.000000 -1.000000
    outer loop
      vertex 34.071678 18.020029 -3.500000
      vertex 36.400000 21.500000 -3.500000
      vertex 34.900000 16.300000 -3.500000
    endloop
  endfacet
  facet normal 0.000000 0.000000 -1.000000
    outer loop
      vertex 15.000000 -21.500000 -3.500000
      vertex 34.071678 14.579971 -3.500000
      vertex 30.717868 -15.345456 -3.500000
    endloop
  endfacet
  facet normal -0.000000 0.000000 -1.000000
    outer loop
      vertex 34.071678 14.579971 -3.500000
      vertex 34.900000 16.300000 -3.500000
      vertex 30.717868 -15.345456 -3.500000
    endloop
  endfacet
  facet normal 0.000000 0.000000 -1.000000
    outer loop
      vertex 34.071678 14.579971 -3.500000
      vertex 16.450000 -13.854552 -3.500000
      vertex 32.210454 14.155159 -3.500000
    endloop
  endfacet
  facet normal 0.000000 0.000000 -1.000000
    outer loop
      vertex 10.049000 4.474103 -3.500000
      vertex 36.400000 21.500000 -3.500000
      vertex 32.210454 18.444841 -3.500000
    endloop
  endfacet
  facet normal 0.000000 -0.000000 -1.000000
    outer loop
      vertex -17.400000 -15.500000 -3.500000
      vertex -21.500000 21.500000 -3.500000
      vertex -16.450000 -13.854552 -3.500000
    endloop
  endfacet
  facet normal 0.000000 0.000000 -1.000000
    outer loop
      vertex -15.000000 -21.500000 -3.500000
      vertex -4.500000 -44.000000 -3.500000
      vertex -15.000000 -44.000000 -3.500000
    endloop
  endfacet
  facet normal 0.000000 1.000000 0.000000
    outer loop
      vertex -21.500000 21.500000 -3.500000
      vertex -21.500000 21.500000 3.500000
      vertex 36.400000 21.500000 -3.500000
    endloop
  endfacet
  facet normal 0.000000 1.000000 0.000000
    outer loop
      vertex 21.598336 21.500000 2.564397
      vertex -21.500000 21.500000 3.500000
      vertex 21.598336 21.500000 3.500000
    endloop
  endfacet
  facet normal 0.000000 1.000000 0.000000
    outer loop
      vertex 22.359424 21.500000 0.854966
      vertex -21.500000 21.500000 3.500000
      vertex 21.598336 21.500000 2.564397
    endloop
  endfacet
  facet normal 0.000000 1.000000 0.000000
    outer loop
      vertex 23.750000 21.500000 -0.397114
      vertex -21.500000 21.500000 3.500000
      vertex 22.359424 21.500000 0.854966
    endloop
  endfacet
  facet normal 0.000000 1.000000 0.000000
    outer loop
      vertex 25.529622 21.500000 -0.975349
      vertex -21.500000 21.500000 3.500000
      vertex 23.750000 21.500000 -0.397114
    endloop
  endfacet
  facet normal 0.000000 1.000000 0.000000
    outer loop
      vertex 36.400000 21.500000 -3.500000
      vertex -21.500000 21.500000 3.500000
      vertex 25.529622 21.500000 -0.975349
    endloop
  endfacet
  facet normal 0.000000 1.000000 -0.000000
    outer loop
      vertex 29.011088 21.500000 0.155848
      vertex 36.400000 21.500000 -3.500000
      vertex 27.390576 21.500000 -0.779754
    endloop
  endfacet
  facet normal 0.000000 1.000000 0.000000
    outer loop
      vertex 36.400000 21.500000 -3.500000
      vertex 29.011088 21.500000 0.155848
      vertex 30.110955 21.500000 1.669685
    endloop
  endfacet
  facet normal 0.000000 1.000000 0.000000
    outer loop
      vertex 30.110955 21.500000 1.669685
      vertex 30.500000 21.500000 3.500000
      vertex 36.400000 21.500000 -3.500000
    endloop
  endfacet
  facet normal 0.000000 1.000000 0.000000
    outer loop
      vertex 36.400000 21.500000 -3.500000
      vertex 30.500000 21.500000 3.500000
      vertex 36.400000 21.500000 3.500000
    endloop
  endfacet
  facet normal 0.000000 1.000000 -0.000000
    outer loop
      vertex 27.390576 21.500000 -0.779754
      vertex 36.400000 21.500000 -3.500000
      vertex 25.529622 21.500000 -0.975349
    endloop
  endfacet
  facet normal 0.000000 -0.000000 1.000000
    outer loop
      vertex -16.450000 -17.145448 3.500000
      vertex -21.500000 -21.500000 3.500000
      vertex 21.598336 -21.500000 3.500000
    endloop
  endfacet
  facet normal 0.000000 -0.000000 1.000000
    outer loop
      vertex -14.550000 -17.145448 3.500000
      vertex -16.450000 -17.145448 3.500000
      vertex 21.598336 -21.500000 3.500000
    endloop
  endfacet
  facet normal 0.000000 -0.000000 1.000000
    outer loop
      vertex -17.400000 -15.500000 3.500000
      vertex -21.500000 -21.500000 3.500000
      vertex -16.450000 -17.145448 3.500000
    endloop
  endfacet
  facet normal 0.000000 0.000000 1.000000
    outer loop
      vertex -14.550000 -13.854552 3.500000
      vertex -13.600000 -15.500000 3.500000
      vertex 21.598336 -21.500000 3.500000
    endloop
  endfacet
  facet normal 0.000000 -0.000000 1.000000
    outer loop
      vertex -21.500000 21.500000 3.500000
      vertex -21.500000 -21.500000 3.500000
      vertex -17.400000 -15.500000 3.500000
    endloop
  endfacet
  facet normal 0.000000 -0.000000 1.000000
    outer loop
      vertex 17.400000 15.500000 3.500000
      vertex 16.450000 13.854552 3.500000
      vertex 21.598336 21.500000 3.500000
    endloop
  endfacet
  facet normal 0.000000 -0.000000 1.000000
    outer loop
      vertex 1.149813 -10.939741 3.500000
      vertex -14.550000 -13.854552 3.500000
      vertex 21.598336 -21.500000 3.500000
    endloop
  endfacet
  facet normal 0.000000 0.000000 1.000000
    outer loop
      vertex -21.500000 21.500000 3.500000
      vertex -16.450000 -13.854552 3.500000
      vertex -14.550000 -13.854552 3.500000
    endloop
  endfacet
  facet normal 0.000000 -0.000000 1.000000
    outer loop
      vertex -13.600000 -15.500000 3.500000
      vertex -14.550000 -17.145448 3.500000
      vertex 21.598336 -21.500000 3.500000
    endloop
  endfacet
  facet normal 0.000000 0.000000 1.000000
    outer loop
      vertex -7.360437 8.174593 3.500000
      vertex -5.500000 9.526279 3.500000
      vertex -14.550000 17.145448 3.500000
    endloop
  endfacet
  facet normal 0.000000 0.000000 1.000000
    outer loop
      vertex -21.500000 21.500000 3.500000
      vertex -14.550000 -13.854552 3.500000
      vertex -16.450000 13.854552 3.500000
    endloop
  endfacet
  facet normal 0.000000 0.000000 1.000000
    outer loop
      vertex -17.400000 15.500000 3.500000
      vertex -16.450000 17.145448 3.500000
      vertex -21.500000 21.500000 3.500000
    endloop
  endfacet
  facet normal 0.000000 0.000000 1.000000
    outer loop
      vertex -21.500000 21.500000 3.500000
      vertex -16.450000 13.854552 3.500000
      vertex -17.400000 15.500000 3.500000
    endloop
  endfacet
  facet normal 0.000000 0.000000 1.000000
    outer loop
      vertex 21.598336 21.500000 3.500000
      vertex -21.500000 21.500000 3.500000
      vertex -16.450000 17.145448 3.500000
    endloop
  endfacet
  facet normal 0.000000 0.000000 1.000000
    outer loop
      vertex -3.399187 10.461622 3.500000
      vertex -1.149813 10.939741 3.500000
      vertex 21.598336 21.500000 3.500000
    endloop
  endfacet
  facet normal 0.000000 0.000000 1.000000
    outer loop
      vertex 21.598336 21.500000 3.500000
      vertex -16.450000 17.145448 3.500000
      vertex -14.550000 17.145448 3.500000
    endloop
  endfacet
  facet normal 0.000000 0.000000 1.000000
    outer loop
      vertex 10.759624 -2.287029 3.500000
      vertex 16.450000 -13.854552 3.500000
      vertex 21.598336 -21.500000 3.500000
    endloop
  endfacet
  facet normal 0.000000 -0.000000 1.000000
    outer loop
      vertex -13.600000 15.500000 3.500000
      vertex -14.550000 13.854552 3.500000
      vertex -7.360437 8.174593 3.500000
    endloop
  endfacet
  facet normal 0.000000 0.000000 1.000000
    outer loop
      vertex -16.450000 13.854552 3.500000
      vertex -14.550000 -13.854552 3.500000
      vertex -10.759624 -2.287029 3.500000
    endloop
  endfacet
  facet normal 0.000000 -0.000000 1.000000
    outer loop
      vertex 16.450000 -17.145448 3.500000
      vertex 14.550000 -17.145448 3.500000
      vertex 21.598336 -21.500000 3.500000
    endloop
  endfacet
  facet normal 0.000000 0.000000 1.000000
    outer loop
      vertex -16.450000 13.854552 3.500000
      vertex -10.759624 -2.287029 3.500000
      vertex -11.000000 0.000000 3.500000
    endloop
  endfacet
  facet normal 0.000000 0.000000 1.000000
    outer loop
      vertex 14.550000 -13.854552 3.500000
      vertex 10.049000 -4.474103 3.500000
      vertex 8.899187 -6.465638 3.500000
    endloop
  endfacet
  facet normal 0.000000 0.000000 1.000000
    outer loop
      vertex -16.450000 13.854552 3.500000
      vertex -11.000000 0.000000 3.500000
      vertex -10.759624 2.287029 3.500000
    endloop
  endfacet
  facet normal 0.000000 0.000000 1.000000
    outer loop
      vertex -16.450000 13.854552 3.500000
      vertex -10.759624 2.287029 3.500000
      vertex -10.049000 4.474103 3.500000
    endloop
  endfacet
  facet normal 0.000000 -0.000000 1.000000
    outer loop
      vertex 8.899187 -6.465638 3.500000
      vertex 7.360437 -8.174593 3.500000
      vertex 14.550000 -13.854552 3.500000
    endloop
  endfacet
  facet normal 0.000000 0.000000 1.000000
    outer loop
      vertex -16.450000 13.854552 3.500000
      vertex -10.049000 4.474103 3.500000
      vertex -8.899187 6.465638 3.500000
    endloop
  endfacet
  facet normal 0.000000 -0.000000 1.000000
    outer loop
      vertex 10.759624 -2.287029 3.500000
      vertex 10.049000 -4.474103 3.500000
      vertex 16.450000 -13.854552 3.500000
    endloop
  endfacet
  facet normal -0.000000 0.000000 1.000000
    outer loop
      vertex -3.399187 10.461622 3.500000
      vertex -14.550000 17.145448 3.500000
      vertex -5.500000 9.526279 3.500000
    endloop
  endfacet
  facet normal 0.000000 0.000000 1.000000
    outer loop
      vertex 10.049000 4.474103 3.500000
      vertex 10.759624 2.287029 3.500000
      vertex 21.598336 -21.500000 3.500000
    endloop
  endfacet
  facet normal 0.000000 0.000000 1.000000
    outer loop
      vertex 21.598336 21.500000 3.500000
      vertex -14.550000 17.145448 3.500000
      vertex -3.399187 10.461622 3.500000
    endloop
  endfacet
  facet normal 0.000000 0.000000 1.000000
    outer loop
      vertex 21.598336 21.500000 3.500000
      vertex -1.149813 10.939741 3.500000
      vertex 1.149813 10.939741 3.500000
    endloop
  endfacet
  facet normal 0.000000 0.000000 1.000000
    outer loop
      vertex 16.450000 -13.854552 3.500000
      vertex 17.400000 -15.500000 3.500000
      vertex 21.598336 -21.500000 3.500000
    endloop
  endfacet
  facet normal 0.000000 0.000000 1.000000
    outer loop
      vertex 21.598336 21.500000 3.500000
      vertex 1.149813 10.939741 3.500000
      vertex 3.399187 10.461622 3.500000
    endloop
  endfacet
  facet normal 0.000000 0.000000 1.000000
    outer loop
      vertex 14.550000 17.145448 3.500000
      vertex 3.399187 10.461622 3.500000
      vertex 5.500000 9.526279 3.500000
    endloop
  endfacet
  facet normal 0.000000 -0.000000 1.000000
    outer loop
      vertex 11.000000 0.000000 3.500000
      vertex 10.759624 -2.287029 3.500000
      vertex 21.598336 -21.500000 3.500000
    endloop
  endfacet
  facet normal 0.000000 0.000000 1.000000
    outer loop
      vertex 13.600000 15.500000 3.500000
      vertex 5.500000 9.526279 3.500000
      vertex 7.360437 8.174593 3.500000
    endloop
  endfacet
  facet normal 0.000000 0.000000 1.000000
    outer loop
      vertex 10.759624 2.287029 3.500000
      vertex 11.000000 0.000000 3.500000
      vertex 21.598336 -21.500000 3.500000
    endloop
  endfacet
  facet normal 0.000000 0.000000 1.000000
    outer loop
      vertex 14.550000 13.854552 3.500000
      vertex 7.360437 8.174593 3.500000
      vertex 8.899187 6.465638 3.500000
    endloop
  endfacet
  facet normal 0.000000 -0.000000 1.000000
    outer loop
      vertex 16.450000 13.854552 3.500000
      vertex 10.049000 4.474103 3.500000
      vertex 21.598336 -21.500000 3.500000
    endloop
  endfacet
  facet normal -0.000000 0.000000 1.000000
    outer loop
      vertex 14.550000 13.854552 3.500000
      vertex 13.600000 15.500000 3.500000
      vertex 7.360437 8.174593 3.500000
    endloop
  endfacet
  facet normal -0.000000 -0.000000 1.000000
    outer loop
      vertex 14.550000 -17.145448 3.500000
      vertex 3.399187 -10.461622 3.500000
      vertex 21.598336 -21.500000 3.500000
    endloop
  endfacet
  facet normal 0.000000 0.000000 1.000000
    outer loop
      vertex 14.550000 -17.145448 3.500000
      vertex 13.600000 -15.500000 3.500000
      vertex 5.500000 -9.526279 3.500000
    endloop
  endfacet
  facet normal 0.000000 -0.000000 1.000000
    outer loop
      vertex -1.149813 -10.939741 3.500000
      vertex -14.550000 -13.854552 3.500000
      vertex 1.149813 -10.939741 3.500000
    endloop
  endfacet
  facet normal 0.000000 -0.000000 1.000000
    outer loop
      vertex -3.399187 -10.461622 3.500000
      vertex -14.550000 -13.854552 3.500000
      vertex -1.149813 -10.939741 3.500000
    endloop
  endfacet
  facet normal 0.000000 -0.000000 1.000000
    outer loop
      vertex -5.500000 -9.526279 3.500000
      vertex -14.550000 -13.854552 3.500000
      vertex -3.399187 -10.461622 3.500000
    endloop
  endfacet
  facet normal 0.000000 -0.000000 1.000000
    outer loop
      vertex -7.360437 -8.174593 3.500000
      vertex -14.550000 -13.854552 3.500000
      vertex -5.500000 -9.526279 3.500000
    endloop
  endfacet
  facet normal 0.000000 -0.000000 1.000000
    outer loop
      vertex -8.899187 -6.465638 3.500000
      vertex -14.550000 -13.854552 3.500000
      vertex -7.360437 -8.174593 3.500000
    endloop
  endfacet
  facet normal 0.000000 -0.000000 1.000000
    outer loop
      vertex -10.049000 -4.474103 3.500000
      vertex -14.550000 -13.854552 3.500000
      vertex -8.899187 -6.465638 3.500000
    endloop
  endfacet
  facet normal 0.000000 -0.000000 1.000000
    outer loop
      vertex -10.759624 -2.287029 3.500000
      vertex -14.550000 -13.854552 3.500000
      vertex -10.049000 -4.474103 3.500000
    endloop
  endfacet
  facet normal 0.000000 -0.000000 1.000000
    outer loop
      vertex 3.399187 -10.461622 3.500000
      vertex 1.149813 -10.939741 3.500000
      vertex 21.598336 -21.500000 3.500000
    endloop
  endfacet
  facet normal 0.000000 0.000000 1.000000
    outer loop
      vertex 13.600000 -15.500000 3.500000
      vertex 14.550000 -13.854552 3.500000
      vertex 7.360437 -8.174593 3.500000
    endloop
  endfacet
  facet normal 0.000000 0.000000 1.000000
    outer loop
      vertex 16.450000 13.854552 3.500000
      vertex 8.899187 6.465638 3.500000
      vertex 10.049000 4.474103 3.500000
    endloop
  endfacet
  facet normal 0.000000 -0.000000 1.000000
    outer loop
      vertex 17.400000 -15.500000 3.500000
      vertex 16.450000 -17.145448 3.500000
      vertex 21.598336 -21.500000 3.500000
    endloop
  endfacet
  facet normal 0.000000 0.000000 1.000000
    outer loop
      vertex 16.450000 13.854552 3.500000
      vertex 14.550000 13.854552 3.500000
      vertex 8.899187 6.465638 3.500000
    endloop
  endfacet
  facet normal 0.000000 0.000000 1.000000
    outer loop
      vertex 14.550000 -13.854552 3.500000
      vertex 16.450000 -13.854552 3.500000
      vertex 10.049000 -4.474103 3.500000
    endloop
  endfacet
  facet normal 0.000000 -0.000000 1.000000
    outer loop
      vertex 5.500000 -9.526279 3.500000
      vertex 3.399187 -10.461622 3.500000
      vertex 14.550000 -17.145448 3.500000
    endloop
  endfacet
  facet normal 0.000000 0.000000 1.000000
    outer loop
      vertex 16.450000 17.145448 3.500000
      vertex 17.400000 15.500000 3.500000
      vertex 21.598336 21.500000 3.500000
    endloop
  endfacet
  facet normal 0.000000 0.000000 1.000000
    outer loop
      vertex 14.550000 17.145448 3.500000
      vertex 16.450000 17.145448 3.500000
      vertex 21.598336 21.500000 3.500000
    endloop
  endfacet
  facet normal 0.000000 0.000000 1.000000
    outer loop
      vertex 21.598336 21.500000 3.500000
      vertex 3.399187 10.461622 3.500000
      vertex 14.550000 17.145448 3.500000
    endloop
  endfacet
  facet normal -0.000000 0.000000 1.000000
    outer loop
      vertex 13.600000 15.500000 3.500000
      vertex 14.550000 17.145448 3.500000
      vertex 5.500000 9.526279 3.500000
    endloop
  endfacet
  facet normal 0.000000 0.000000 1.000000
    outer loop
      vertex 21.598336 21.500000 3.500000
      vertex 16.450000 13.854552 3.500000
      vertex 21.598336 -21.500000 3.500000
    endloop
  endfacet
  facet normal 0.000000 0.000000 1.000000
    outer loop
      vertex -17.400000 -15.500000 3.500000
      vertex -16.450000 -13.854552 3.500000
      vertex -21.500000 21.500000 3.500000
    endloop
  endfacet
  facet normal 0.000000 0.000000 1.000000
    outer loop
      vertex -7.360437 8.174593 3.500000
      vertex -14.550000 17.145448 3.500000
      vertex -13.600000 15.500000 3.500000
    endloop
  endfacet
  facet normal 0.000000 0.000000 1.000000
    outer loop
      vertex -8.899187 6.465638 3.500000
      vertex -14.550000 13.854552 3.500000
      vertex -16.450000 13.854552 3.500000
    endloop
  endfacet
  facet normal 0.000000 0.000000 1.000000
    outer loop
      vertex -8.899187 6.465638 3.500000
      vertex -7.360437 8.174593 3.500000
      vertex -14.550000 13.854552 3.500000
    endloop
  endfacet
  facet normal 0.000000 -0.000000 1.000000
    outer loop
      vertex 7.360437 -8.174593 3.500000
      vertex 5.500000 -9.526279 3.500000
      vertex 13.600000 -15.500000 3.500000
    endloop
  endfacet
  facet normal 1.000000 0.000000 0.000000
    outer loop
      vertex 21.598336 21.500000 2.564397
      vertex 21.598336 21.500000 3.500000
      vertex 21.598336 -21.500000 3.500000
    endloop
  endfacet
  facet normal 1.000000 0.000000 0.000000
    outer loop
      vertex 21.598336 -21.500000 2.564397
      vertex 21.598336 21.500000 2.564397
      vertex 21.598336 -21.500000 3.500000
    endloop
  endfacet
  facet normal 0.913545 0.000000 0.406737
    outer loop
      vertex 22.359424 -21.500000 0.854966
      vertex 22.359424 21.500000 0.854966
      vertex 21.598336 21.500000 2.564397
    endloop
  endfacet
  facet normal 0.913545 0.000000 0.406737
    outer loop
      vertex 21.598336 -21.500000 2.564397
      vertex 22.359424 -21.500000 0.854966
      vertex 21.598336 21.500000 2.564397
    endloop
  endfacet
  facet normal 0.669131 0.000000 0.743145
    outer loop
      vertex 23.750000 -21.500000 -0.397114
      vertex 23.750000 21.500000 -0.397114
      vertex 22.359424 21.500000 0.854966
    endloop
  endfacet
  facet normal 0.669131 0.000000 0.743145
    outer loop
      vertex 22.359424 -21.500000 0.854966
      vertex 23.750000 -21.500000 -0.397114
      vertex 22.359424 21.500000 0.854966
    endloop
  endfacet
  facet normal 0.309017 0.000000 0.951056
    outer loop
      vertex 25.529622 -21.500000 -0.975349
      vertex 25.529622 21.500000 -0.975349
      vertex 23.750000 21.500000 -0.397114
    endloop
  endfacet
  facet normal 0.309017 0.000000 0.951056
    outer loop
      vertex 23.750000 -21.500000 -0.397114
      vertex 25.529622 -21.500000 -0.975349
      vertex 23.750000 21.500000 -0.397114
    endloop
  endfacet
  facet normal -0.104529 0.000000 0.994522
    outer loop
      vertex 27.390576 -21.500000 -0.779754
      vertex 27.390576 21.500000 -0.779754
      vertex 25.529622 21.500000 -0.975349
    endloop
  endfacet
  facet normal -0.104529 0.000000 0.994522
    outer loop
      vertex 25.529622 -21.500000 -0.975349
      vertex 27.390576 -21.500000 -0.779754
      vertex 25.529622 21.500000 -0.975349
    endloop
  endfacet
  facet normal -0.500000 0.000000 0.866026
    outer loop
      vertex 29.011088 -21.500000 0.155848
      vertex 29.011088 21.500000 0.155848
      vertex 27.390576 21.500000 -0.779754
    endloop
  endfacet
  facet normal -0.500000 0.000000 0.866026
    outer loop
      vertex 27.390576 -21.500000 -0.779754
      vertex 29.011088 -21.500000 0.155848
      vertex 27.390576 21.500000 -0.779754
    endloop
  endfacet
  facet normal -0.809017 0.000000 0.587785
    outer loop
      vertex 30.110955 21.500000 1.669685
      vertex 29.011088 21.500000 0.155848
      vertex 30.110955 -21.500000 1.669685
    endloop
  endfacet
  facet normal -0.809017 0.000000 0.587785
    outer loop
      vertex 30.110955 -21.500000 1.669685
      vertex 29.011088 21.500000 0.155848
      vertex 29.011088 -21.500000 0.155848
    endloop
  endfacet
  facet normal -0.000000 0.000000 0.000000
    outer loop
      vertex 30.500000 0.000000 3.500000
      vertex 30.500000 21.500000 3.500000
      vertex 30.500000 -21.500000 3.500000
    endloop
  endfacet
  facet normal -0.978148 0.000000 0.207911
    outer loop
      vertex 30.500000 -21.500000 3.500000
      vertex 30.500000 21.500000 3.500000
      vertex 30.110955 21.500000 1.669685
    endloop
  endfacet
  facet normal -0.978148 0.000000 0.207911
    outer loop
      vertex 30.500000 -21.500000 3.500000
      vertex 30.110955 21.500000 1.669685
      vertex 30.110955 -21.500000 1.669685
    endloop
  endfacet
  facet normal 0.000000 -0.000000 1.000000
    outer loop
      vertex 32.210454 -18.444841 3.500000
      vertex 30.500000 -21.500000 3.500000
      vertex 36.400000 -21.500000 3.500000
    endloop
  endfacet
  facet normal 0.000000 -0.000000 1.000000
    outer loop
      vertex 34.900000 16.300000 3.500000
      vertex 30.500000 0.000000 3.500000
      vertex 36.400000 21.500000 3.500000
    endloop
  endfacet
  facet normal 0.000000 0.000000 1.000000
    outer loop
      vertex 36.400000 21.500000 3.500000
      vertex 30.500000 0.000000 3.500000
      vertex 36.400000 -21.500000 3.500000
    endloop
  endfacet
  facet normal 0.000000 -0.000000 1.000000
    outer loop
      vertex 30.500000 0.000000 3.500000
      vertex 30.500000 -21.500000 3.500000
      vertex 30.717868 -17.254544 3.500000
    endloop
  endfacet
  facet normal 0.000000 0.000000 1.000000
    outer loop
      vertex 32.210454 18.444841 3.500000
      vertex 34.071678 18.020029 3.500000
      vertex 36.400000 21.500000 3.500000
    endloop
  endfacet
  facet normal 0.000000 0.000000 1.000000
    outer loop
      vertex 30.500000 0.000000 3.500000
      vertex 30.717868 -17.254544 3.500000
      vertex 30.717868 -15.345456 3.500000
    endloop
  endfacet
  facet normal 0.000000 0.000000 1.000000
    outer loop
      vertex 30.500000 0.000000 3.500000
      vertex 30.717868 -15.345456 3.500000
      vertex 32.210454 -14.155159 3.500000
    endloop
  endfacet
  facet normal 0.000000 -0.000000 1.000000
    outer loop
      vertex 34.071678 -18.020029 3.500000
      vertex 32.210454 -18.444841 3.500000
      vertex 36.400000 -21.500000 3.500000
    endloop
  endfacet
  facet normal 0.000000 0.000000 1.000000
    outer loop
      vertex 30.500000 0.000000 3.500000
      vertex 32.210454 -14.155159 3.500000
      vertex 34.071678 -14.579971 3.500000
    endloop
  endfacet
  facet normal 0.000000 0.000000 1.000000
    outer loop
      vertex 30.500000 0.000000 3.500000
      vertex 34.900000 -16.300000 3.500000
      vertex 36.400000 -21.500000 3.500000
    endloop
  endfacet
  facet normal 0.000000 0.000000 1.000000
    outer loop
      vertex 30.500000 0.000000 3.500000
      vertex 34.071678 -14.579971 3.500000
      vertex 34.900000 -16.300000 3.500000
    endloop
  endfacet
  facet normal 0.000000 -0.000000 1.000000
    outer loop
      vertex 30.717868 -17.254544 3.500000
      vertex 30.500000 -21.500000 3.500000
      vertex 32.210454 -18.444841 3.500000
    endloop
  endfacet
  facet normal 0.000000 0.000000 1.000000
    outer loop
      vertex 34.071678 14.579971 3.500000
      vertex 32.210454 14.155159 3.500000
      vertex 30.500000 0.000000 3.500000
    endloop
  endfacet
  facet normal 0.000000 0.000000 1.000000
    outer loop
      vertex 30.500000 21.500000 3.500000
      vertex 30.500000 0.000000 3.500000
      vertex 30.717868 15.345456 3.500000
    endloop
  endfacet
  facet normal 0.000000 0.000000 1.000000
    outer loop
      vertex 30.500000 21.500000 3.500000
      vertex 30.717868 15.345456 3.500000
      vertex 30.717868 17.254544 3.500000
    endloop
  endfacet
  facet normal 0.000000 0.000000 1.000000
    outer loop
      vertex 30.500000 21.500000 3.500000
      vertex 32.210454 18.444841 3.500000
      vertex 36.400000 21.500000 3.500000
    endloop
  endfacet
  facet normal 0.000000 0.000000 1.000000
    outer loop
      vertex 30.500000 21.500000 3.500000
      vertex 30.717868 17.254544 3.500000
      vertex 32.210454 18.444841 3.500000
    endloop
  endfacet
  facet normal 0.000000 0.000000 1.000000
    outer loop
      vertex 34.071678 18.020029 3.500000
      vertex 34.900000 16.300000 3.500000
      vertex 36.400000 21.500000 3.500000
    endloop
  endfacet
  facet normal 0.000000 -0.000000 1.000000
    outer loop
      vertex 34.071678 14.579971 3.500000
      vertex 30.500000 0.000000 3.500000
      vertex 34.900000 16.300000 3.500000
    endloop
  endfacet
  facet normal 0.000000 -0.000000 1.000000
    outer loop
      vertex 30.717868 15.345456 3.500000
      vertex 30.500000 0.000000 3.500000
      vertex 32.210454 14.155159 3.500000
    endloop
  endfacet
  facet normal 0.000000 -0.000000 1.000000
    outer loop
      vertex 34.900000 -16.300000 3.500000
      vertex 34.071678 -18.020029 3.500000
      vertex 36.400000 -21.500000 3.500000
    endloop
  endfacet
  facet normal 1.000000 0.000000 -0.000000
    outer loop
      vertex 36.400000 -21.500000 3.500000
      vertex 36.400000 -21.500000 -3.500000
      vertex 36.400000 21.500000 -3.500000
    endloop
  endfacet
  facet normal 1.000000 0.000000 0.000000
    outer loop
      vertex 36.400000 21.500000 3.500000
      vertex 36.400000 -21.500000 3.500000
      vertex 36.400000 21.500000 -3.500000
    endloop
  endfacet
  facet normal 1.000000 0.000000 -0.000000
    outer loop
      vertex 15.000000 -44.000000 1.000000
      vertex 15.000000 -44.000000 -3.500000
      vertex 15.000000 -21.500000 -3.500000
    endloop
  endfacet
  facet normal 1.000000 0.000000 0.000000
    outer loop
      vertex 15.000000 -21.500000 1.000000
      vertex 15.000000 -44.000000 1.000000
      vertex 15.000000 -21.500000 -3.500000
    endloop
  endfacet
  facet normal 0.000000 -0.000000 1.000000
    outer loop
      vertex -15.000000 -21.500000 1.000000
      vertex -15.000000 -44.000000 1.000000
      vertex -4.500000 -44.000000 1.000000
    endloop
  endfacet
  facet normal -0.000000 0.000000 1.000000
    outer loop
      vertex 4.500000 -25.950000 1.000000
      vertex -15.000000 -21.500000 1.000000
      vertex -4.500000 -25.950000 1.000000
    endloop
  endfacet
  facet normal -0.000000 0.000000 1.000000
    outer loop
      vertex -4.500000 -25.950000 1.000000
      vertex -15.000000 -21.500000 1.000000
      vertex -4.500000 -44.000000 1.000000
    endloop
  endfacet
  facet normal 0.000000 0.000000 1.000000
    outer loop
      vertex 15.000000 -21.500000 1.000000
      vertex -15.000000 -21.500000 1.000000
      vertex 4.500000 -25.950000 1.000000
    endloop
  endfacet
  facet normal -0.000000 0.000000 1.000000
    outer loop
      vertex 15.000000 -44.000000 1.000000
      vertex 4.500000 -25.950000 1.000000
      vertex 4.500000 -44.000000 1.000000
    endloop
  endfacet
  facet normal 0.000000 0.000000 1.000000
    outer loop
      vertex 15.000000 -21.500000 1.000000
      vertex 4.500000 -25.950000 1.000000
      vertex 15.000000 -44.000000 1.000000
    endloop
  endfacet
  facet normal -1.000000 -0.000000 -0.000000
    outer loop
      vertex -15.000000 -44.000000 -3.500000
      vertex -15.000000 -44.000000 1.000000
      vertex -15.000000 -21.500000 -3.500000
    endloop
  endfacet
  facet normal -1.000000 0.000000 0.000000
    outer loop
      vertex -15.000000 -21.500000 -3.500000
      vertex -15.000000 -44.000000 1.000000
      vertex -15.000000 -21.500000 1.000000
    endloop
  endfacet
  facet normal 0.000000 -1.000000 0.000000
    outer loop
      vertex -15.000000 -44.000000 1.000000
      vertex -15.000000 -44.000000 -3.500000
      vertex -4.500000 -44.000000 -3.500000
    endloop
  endfacet
  facet normal 0.000000 -1.000000 0.000000
    outer loop
      vertex -4.500000 -44.000000 1.000000
      vertex -15.000000 -44.000000 1.000000
      vertex -4.500000 -44.000000 -3.500000
    endloop
  endfacet
  facet normal 1.000000 0.000000 0.000000
    outer loop
      vertex -4.500000 -25.950000 -3.500000
      vertex -4.500000 -25.950000 1.000000
      vertex -4.500000 -44.000000 1.000000
    endloop
  endfacet
  facet normal 1.000000 0.000000 0.000000
    outer loop
      vertex -4.500000 -44.000000 -3.500000
      vertex -4.500000 -25.950000 -3.500000
      vertex -4.500000 -44.000000 1.000000
    endloop
  endfacet
  facet normal 0.000000 -1.000000 0.000000
    outer loop
      vertex 4.500000 -25.950000 -3.500000
      vertex 4.500000 -25.950000 1.000000
      vertex -4.500000 -25.950000 1.000000
    endloop
  endfacet
  facet normal -0.000000 -1.000000 -0.000000
    outer loop
      vertex -4.500000 -25.950000 -3.500000
      vertex 4.500000 -25.950000 -3.500000
      vertex -4.500000 -25.950000 1.000000
    endloop
  endfacet
  facet normal -1.000000 0.000000 0.000000
    outer loop
      vertex 4.500000 -25.950000 1.000000
      vertex 4.500000 -25.950000 -3.500000
      vertex 4.500000 -44.000000 1.000000
    endloop
  endfacet
  facet normal -1.000000 0.000000 0.000000
    outer loop
      vertex 4.500000 -44.000000 1.000000
      vertex 4.500000 -25.950000 -3.500000
      vertex 4.500000 -44.000000 -3.500000
    endloop
  endfacet
  facet normal 0.000000 -1.000000 0.000000
    outer loop
      vertex 4.500000 -44.000000 1.000000
      vertex 4.500000 -44.000000 -3.500000
      vertex 15.000000 -44.000000 -3.500000
    endloop
  endfacet
  facet normal 0.000000 -1.000000 0.000000
    outer loop
      vertex 15.000000 -44.000000 1.000000
      vertex 4.500000 -44.000000 1.000000
      vertex 15.000000 -44.000000 -3.500000
    endloop
  endfacet
  facet normal 0.866025 -0.500000 0.000000
    outer loop
      vertex -16.450000 -13.854552 -3.500000
      vertex -16.450000 -13.854552 3.500000
      vertex -17.400000 -15.500000 3.500000
    endloop
  endfacet
  facet normal 0.866025 -0.500000 0.000000
    outer loop
      vertex -17.400000 -15.500000 -3.500000
      vertex -16.450000 -13.854552 -3.500000
      vertex -17.400000 -15.500000 3.500000
    endloop
  endfacet
  facet normal 0.866025 0.500000 0.000000
    outer loop
      vertex -17.400000 -15.500000 3.500000
      vertex -16.450000 -17.145448 3.500000
      vertex -16.450000 -17.145448 -3.500000
    endloop
  endfacet
  facet normal 0.866025 0.500000 0.000000
    outer loop
      vertex -17.400000 -15.500000 -3.500000
      vertex -17.400000 -15.500000 3.500000
      vertex -16.450000 -17.145448 -3.500000
    endloop
  endfacet
  facet normal 0.000000 -1.000000 0.000000
    outer loop
      vertex -14.550000 -13.854552 -3.500000
      vertex -14.550000 -13.854552 3.500000
      vertex -16.450000 -13.854552 3.500000
    endloop
  endfacet
  facet normal -0.000000 -1.000000 -0.000000
    outer loop
      vertex -16.450000 -13.854552 -3.500000
      vertex -14.550000 -13.854552 -3.500000
      vertex -16.450000 -13.854552 3.500000
    endloop
  endfacet
  facet normal -0.866025 -0.500000 0.000000
    outer loop
      vertex -13.600000 -15.500000 3.500000
      vertex -14.550000 -13.854552 3.500000
      vertex -13.600000 -15.500000 -3.500000
    endloop
  endfacet
  facet normal -0.866025 -0.500000 0.000000
    outer loop
      vertex -13.600000 -15.500000 -3.500000
      vertex -14.550000 -13.854552 3.500000
      vertex -14.550000 -13.854552 -3.500000
    endloop
  endfacet
  facet normal -0.866025 0.500000 0.000000
    outer loop
      vertex -13.600000 -15.500000 3.500000
      vertex -13.600000 -15.500000 -3.500000
      vertex -14.550000 -17.145448 3.500000
    endloop
  endfacet
  facet normal -0.866025 0.500000 0.000000
    outer loop
      vertex -14.550000 -17.145448 3.500000
      vertex -13.600000 -15.500000 -3.500000
      vertex -14.550000 -17.145448 -3.500000
    endloop
  endfacet
  facet normal 0.000000 1.000000 0.000000
    outer loop
      vertex -14.550000 -17.145448 3.500000
      vertex -14.550000 -17.145448 -3.500000
      vertex -16.450000 -17.145448 3.500000
    endloop
  endfacet
  facet normal 0.000000 1.000000 -0.000000
    outer loop
      vertex -16.450000 -17.145448 3.500000
      vertex -14.550000 -17.145448 -3.500000
      vertex -16.450000 -17.145448 -3.500000
    endloop
  endfacet
  facet normal 0.866025 -0.500000 0.000000
    outer loop
      vertex -16.450000 17.145448 -3.500000
      vertex -16.450000 17.145448 3.500000
      vertex -17.400000 15.500000 3.500000
    endloop
  endfacet
  facet normal 0.866025 -0.500000 0.000000
    outer loop
      vertex -17.400000 15.500000 -3.500000
      vertex -16.450000 17.145448 -3.500000
      vertex -17.400000 15.500000 3.500000
    endloop
  endfacet
  facet normal 0.866025 0.500000 0.000000
    outer loop
      vertex -17.400000 15.500000 3.500000
      vertex -16.450000 13.854552 3.500000
      vertex -16.450000 13.854552 -3.500000
    endloop
  endfacet
  facet normal 0.866025 0.500000 0.000000
    outer loop
      vertex -17.400000 15.500000 -3.500000
      vertex -17.400000 15.500000 3.500000
      vertex -16.450000 13.854552 -3.500000
    endloop
  endfacet
  facet normal 0.000000 -1.000000 0.000000
    outer loop
      vertex -14.550000 17.145448 -3.500000
      vertex -14.550000 17.145448 3.500000
      vertex -16.450000 17.145448 3.500000
    endloop
  endfacet
  facet normal -0.000000 -1.000000 -0.000000
    outer loop
      vertex -16.450000 17.145448 -3.500000
      vertex -14.550000 17.145448 -3.500000
      vertex -16.450000 17.145448 3.500000
    endloop
  endfacet
  facet normal -0.866025 -0.500000 0.000000
    outer loop
      vertex -13.600000 15.500000 3.500000
      vertex -14.550000 17.145448 3.500000
      vertex -13.600000 15.500000 -3.500000
    endloop
  endfacet
  facet normal -0.866025 -0.500000 0.000000
    outer loop
      vertex -13.600000 15.500000 -3.500000
      vertex -14.550000 17.145448 3.500000
      vertex -14.550000 17.145448 -3.500000
    endloop
  endfacet
  facet normal -0.866025 0.500000 0.000000
    outer loop
      vertex -13.600000 15.500000 3.500000
      vertex -13.600000 15.500000 -3.500000
      vertex -14.550000 13.854552 3.500000
    endloop
  endfacet
  facet normal -0.866025 0.500000 0.000000
    outer loop
      vertex -14.550000 13.854552 3.500000
      vertex -13.600000 15.500000 -3.500000
      vertex -14.550000 13.854552 -3.500000
    endloop
  endfacet
  facet normal 0.000000 1.000000 0.000000
    outer loop
      vertex -14.550000 13.854552 3.500000
      vertex -14.550000 13.854552 -3.500000
      vertex -16.450000 13.854552 3.500000
    endloop
  endfacet
  facet normal 0.000000 1.000000 -0.000000
    outer loop
      vertex -16.450000 13.854552 3.500000
      vertex -14.550000 13.854552 -3.500000
      vertex -16.450000 13.854552 -3.500000
    endloop
  endfacet
  facet normal 0.994522 0.104528 0.000000
    outer loop
      vertex -11.000000 0.000000 3.500000
      vertex -10.759624 -2.287029 3.500000
      vertex -10.759624 -2.287029 -3.500000
    endloop
  endfacet
  facet normal 0.994522 0.104528 0.000000
    outer loop
      vertex -11.000000 0.000000 -3.500000
      vertex -11.000000 0.000000 3.500000
      vertex -10.759624 -2.287029 -3.500000
    endloop
  endfacet
  facet normal 0.994522 -0.104528 0.000000
    outer loop
      vertex -10.759624 2.287029 -3.500000
      vertex -10.759624 2.287029 3.500000
      vertex -11.000000 0.000000 3.500000
    endloop
  endfacet
  facet normal 0.994522 -0.104528 0.000000
    outer loop
      vertex -11.000000 0.000000 -3.500000
      vertex -10.759624 2.287029 -3.500000
      vertex -11.000000 0.000000 3.500000
    endloop
  endfacet
  facet normal 0.951056 -0.309017 0.000000
    outer loop
      vertex -10.049000 4.474103 -3.500000
      vertex -10.049000 4.474103 3.500000
      vertex -10.759624 2.287029 3.500000
    endloop
  endfacet
  facet normal 0.951056 -0.309017 0.000000
    outer loop
      vertex -10.759624 2.287029 -3.500000
      vertex -10.049000 4.474103 -3.500000
      vertex -10.759624 2.287029 3.500000
    endloop
  endfacet
  facet normal 0.866025 -0.500000 0.000000
    outer loop
      vertex -8.899187 6.465638 -3.500000
      vertex -8.899187 6.465638 3.500000
      vertex -10.049000 4.474103 3.500000
    endloop
  endfacet
  facet normal 0.866025 -0.500000 0.000000
    outer loop
      vertex -10.049000 4.474103 -3.500000
      vertex -8.899187 6.465638 -3.500000
      vertex -10.049000 4.474103 3.500000
    endloop
  endfacet
  facet normal 0.743145 -0.669131 0.000000
    outer loop
      vertex -7.360437 8.174593 -3.500000
      vertex -7.360437 8.174593 3.500000
      vertex -8.899187 6.465638 3.500000
    endloop
  endfacet
  facet normal 0.743145 -0.669131 0.000000
    outer loop
      vertex -8.899187 6.465638 -3.500000
      vertex -7.360437 8.174593 -3.500000
      vertex -8.899187 6.465638 3.500000
    endloop
  endfacet
  facet normal 0.587785 -0.809017 0.000000
    outer loop
      vertex -5.500000 9.526279 -3.500000
      vertex -5.500000 9.526279 3.500000
      vertex -7.360437 8.174593 3.500000
    endloop
  endfacet
  facet normal 0.587785 -0.809017 0.000000
    outer loop
      vertex -7.360437 8.174593 -3.500000
      vertex -5.500000 9.526279 -3.500000
      vertex -7.360437 8.174593 3.500000
    endloop
  endfacet
  facet normal 0.406737 -0.913545 0.000000
    outer loop
      vertex -3.399187 10.461622 -3.500000
      vertex -3.399187 10.461622 3.500000
      vertex -5.500000 9.526279 3.500000
    endloop
  endfacet
  facet normal 0.406737 -0.913545 0.000000
    outer loop
      vertex -5.500000 9.526279 -3.500000
      vertex -3.399187 10.461622 -3.500000
      vertex -5.500000 9.526279 3.500000
    endloop
  endfacet
  facet normal 0.207912 -0.978148 0.000000
    outer loop
      vertex -1.149813 10.939741 -3.500000
      vertex -1.149813 10.939741 3.500000
      vertex -3.399187 10.461622 3.500000
    endloop
  endfacet
  facet normal 0.207912 -0.978148 0.000000
    outer loop
      vertex -3.399187 10.461622 -3.500000
      vertex -1.149813 10.939741 -3.500000
      vertex -3.399187 10.461622 3.500000
    endloop
  endfacet
  facet normal 0.000000 -1.000000 0.000000
    outer loop
      vertex 1.149813 10.939741 -3.500000
      vertex 1.149813 10.939741 3.500000
      vertex -1.149813 10.939741 3.500000
    endloop
  endfacet
  facet normal -0.000000 -1.000000 -0.000000
    outer loop
      vertex -1.149813 10.939741 -3.500000
      vertex 1.149813 10.939741 -3.500000
      vertex -1.149813 10.939741 3.500000
    endloop
  endfacet
  facet normal -0.207912 -0.978148 -0.000000
    outer loop
      vertex 3.399187 10.461622 -3.500000
      vertex 3.399187 10.461622 3.500000
      vertex 1.149813 10.939741 3.500000
    endloop
  endfacet
  facet normal -0.207912 -0.978148 -0.000000
    outer loop
      vertex 1.149813 10.939741 -3.500000
      vertex 3.399187 10.461622 -3.500000
      vertex 1.149813 10.939741 3.500000
    endloop
  endfacet
  facet normal -0.406737 -0.913545 -0.000000
    outer loop
      vertex 5.500000 9.526279 -3.500000
      vertex 5.500000 9.526279 3.500000
      vertex 3.399187 10.461622 3.500000
    endloop
  endfacet
  facet normal -0.406737 -0.913545 -0.000000
    outer loop
      vertex 3.399187 10.461622 -3.500000
      vertex 5.500000 9.526279 -3.500000
      vertex 3.399187 10.461622 3.500000
    endloop
  endfacet
  facet normal -0.587785 -0.809017 -0.000000
    outer loop
      vertex 7.360437 8.174593 -3.500000
      vertex 7.360437 8.174593 3.500000
      vertex 5.500000 9.526279 3.500000
    endloop
  endfacet
  facet normal -0.587785 -0.809017 -0.000000
    outer loop
      vertex 5.500000 9.526279 -3.500000
      vertex 7.360437 8.174593 -3.500000
      vertex 5.500000 9.526279 3.500000
    endloop
  endfacet
  facet normal -0.743145 -0.669131 0.000000
    outer loop
      vertex 8.899187 6.465638 3.500000
      vertex 7.360437 8.174593 3.500000
      vertex 8.899187 6.465638 -3.500000
    endloop
  endfacet
  facet normal -0.743145 -0.669131 0.000000
    outer loop
      vertex 8.899187 6.465638 -3.500000
      vertex 7.360437 8.174593 3.500000
      vertex 7.360437 8.174593 -3.500000
    endloop
  endfacet
  facet normal -0.866025 -0.500000 0.000000
    outer loop
      vertex 10.049000 4.474103 3.500000
      vertex 8.899187 6.465638 3.500000
      vertex 10.049000 4.474103 -3.500000
    endloop
  endfacet
  facet normal -0.866025 -0.500000 0.000000
    outer loop
      vertex 10.049000 4.474103 -3.500000
      vertex 8.899187 6.465638 3.500000
      vertex 8.899187 6.465638 -3.500000
    endloop
  endfacet
  facet normal -0.951056 -0.309017 0.000000
    outer loop
      vertex 10.759624 2.287029 3.500000
      vertex 10.049000 4.474103 3.500000
      vertex 10.759624 2.287029 -3.500000
    endloop
  endfacet
  facet normal -0.951056 -0.309017 0.000000
    outer loop
      vertex 10.759624 2.287029 -3.500000
      vertex 10.049000 4.474103 3.500000
      vertex 10.049000 4.474103 -3.500000
    endloop
  endfacet
  facet normal -0.994522 -0.104528 0.000000
    outer loop
      vertex 11.000000 0.000000 3.500000
      vertex 10.759624 2.287029 3.500000
      vertex 11.000000 0.000000 -3.500000
    endloop
  endfacet
  facet normal -0.994522 -0.104528 0.000000
    outer loop
      vertex 11.000000 0.000000 -3.500000
      vertex 10.759624 2.287029 3.500000
      vertex 10.759624 2.287029 -3.500000
    endloop
  endfacet
  facet normal -0.994522 0.104528 0.000000
    outer loop
      vertex 11.000000 0.000000 3.500000
      vertex 11.000000 0.000000 -3.500000
      vertex 10.759624 -2.287029 3.500000
    endloop
  endfacet
  facet normal -0.994522 0.104528 0.000000
    outer loop
      vertex 10.759624 -2.287029 3.500000
      vertex 11.000000 0.000000 -3.500000
      vertex 10.759624 -2.287029 -3.500000
    endloop
  endfacet
  facet normal -0.951056 0.309017 0.000000
    outer loop
      vertex 10.759624 -2.287029 3.500000
      vertex 10.759624 -2.287029 -3.500000
      vertex 10.049000 -4.474103 3.500000
    endloop
  endfacet
  facet normal -0.951056 0.309017 0.000000
    outer loop
      vertex 10.049000 -4.474103 3.500000
      vertex 10.759624 -2.287029 -3.500000
      vertex 10.049000 -4.474103 -3.500000
    endloop
  endfacet
  facet normal -0.866025 0.500000 0.000000
    outer loop
      vertex 10.049000 -4.474103 3.500000
      vertex 10.049000 -4.474103 -3.500000
      vertex 8.899187 -6.465638 3.500000
    endloop
  endfacet
  facet normal -0.866025 0.500000 0.000000
    outer loop
      vertex 8.899187 -6.465638 3.500000
      vertex 10.049000 -4.474103 -3.500000
      vertex 8.899187 -6.465638 -3.500000
    endloop
  endfacet
  facet normal -0.743145 0.669131 0.000000
    outer loop
      vertex 8.899187 -6.465638 3.500000
      vertex 8.899187 -6.465638 -3.500000
      vertex 7.360437 -8.174593 3.500000
    endloop
  endfacet
  facet normal -0.743145 0.669131 0.000000
    outer loop
      vertex 7.360437 -8.174593 3.500000
      vertex 8.899187 -6.465638 -3.500000
      vertex 7.360437 -8.174593 -3.500000
    endloop
  endfacet
  facet normal -0.587785 0.809017 0.000000
    outer loop
      vertex 7.360437 -8.174593 3.500000
      vertex 7.360437 -8.174593 -3.500000
      vertex 5.500000 -9.526279 3.500000
    endloop
  endfacet
  facet normal -0.587785 0.809017 0.000000
    outer loop
      vertex 5.500000 -9.526279 3.500000
      vertex 7.360437 -8.174593 -3.500000
      vertex 5.500000 -9.526279 -3.500000
    endloop
  endfacet
  facet normal -0.406737 0.913545 0.000000
    outer loop
      vertex 5.500000 -9.526279 3.500000
      vertex 5.500000 -9.526279 -3.500000
      vertex 3.399187 -10.461622 3.500000
    endloop
  endfacet
  facet normal -0.406737 0.913545 0.000000
    outer loop
      vertex 3.399187 -10.461622 3.500000
      vertex 5.500000 -9.526279 -3.500000
      vertex 3.399187 -10.461622 -3.500000
    endloop
  endfacet
  facet normal -0.207912 0.978148 0.000000
    outer loop
      vertex 3.399187 -10.461622 3.500000
      vertex 3.399187 -10.461622 -3.500000
      vertex 1.149813 -10.939741 3.500000
    endloop
  endfacet
  facet normal -0.207912 0.978148 0.000000
    outer loop
      vertex 1.149813 -10.939741 3.500000
      vertex 3.399187 -10.461622 -3.500000
      vertex 1.149813 -10.939741 -3.500000
    endloop
  endfacet
  facet normal 0.000000 1.000000 0.000000
    outer loop
      vertex 1.149813 -10.939741 3.500000
      vertex 1.149813 -10.939741 -3.500000
      vertex -1.149813 -10.939741 3.500000
    endloop
  endfacet
  facet normal 0.000000 1.000000 -0.000000
    outer loop
      vertex -1.149813 -10.939741 3.500000
      vertex 1.149813 -10.939741 -3.500000
      vertex -1.149813 -10.939741 -3.500000
    endloop
  endfacet
  facet normal 0.207912 0.978148 -0.000000
    outer loop
      vertex -1.149813 -10.939741 3.500000
      vertex -1.149813 -10.939741 -3.500000
      vertex -3.399187 -10.461622 3.500000
    endloop
  endfacet
  facet normal 0.207912 0.978148 -0.000000
    outer loop
      vertex -3.399187 -10.461622 3.500000
      vertex -1.149813 -10.939741 -3.500000
      vertex -3.399187 -10.461622 -3.500000
    endloop
  endfacet
  facet normal 0.406737 0.913545 -0.000000
    outer loop
      vertex -3.399187 -10.461622 3.500000
      vertex -3.399187 -10.461622 -3.500000
      vertex -5.500000 -9.526279 3.500000
    endloop
  endfacet
  facet normal 0.406737 0.913545 -0.000000
    outer loop
      vertex -5.500000 -9.526279 3.500000
      vertex -3.399187 -10.461622 -3.500000
      vertex -5.500000 -9.526279 -3.500000
    endloop
  endfacet
  facet normal 0.587785 0.809017 -0.000000
    outer loop
      vertex -5.500000 -9.526279 3.500000
      vertex -5.500000 -9.526279 -3.500000
      vertex -7.360437 -8.174593 3.500000
    endloop
  endfacet
  facet normal 0.587785 0.809017 -0.000000
    outer loop
      vertex -7.360437 -8.174593 3.500000
      vertex -5.500000 -9.526279 -3.500000
      vertex -7.360437 -8.174593 -3.500000
    endloop
  endfacet
  facet normal 0.743145 0.669131 0.000000
    outer loop
      vertex -8.899187 -6.465638 3.500000
      vertex -7.360437 -8.174593 3.500000
      vertex -7.360437 -8.174593 -3.500000
    endloop
  endfacet
  facet normal 0.743145 0.669131 0.000000
    outer loop
      vertex -8.899187 -6.465638 -3.500000
      vertex -8.899187 -6.465638 3.500000
      vertex -7.360437 -8.174593 -3.500000
    endloop
  endfacet
  facet normal 0.866025 0.500000 0.000000
    outer loop
      vertex -10.049000 -4.474103 3.500000
      vertex -8.899187 -6.465638 3.500000
      vertex -8.899187 -6.465638 -3.500000
    endloop
  endfacet
  facet normal 0.866025 0.500000 0.000000
    outer loop
      vertex -10.049000 -4.474103 -3.500000
      vertex -10.049000 -4.474103 3.500000
      vertex -8.899187 -6.465638 -3.500000
    endloop
  endfacet
  facet normal 0.951056 0.309017 0.000000
    outer loop
      vertex -10.759624 -2.287029 3.500000
      vertex -10.049000 -4.474103 3.500000
      vertex -10.049000 -4.474103 -3.500000
    endloop
  endfacet
  facet normal 0.951056 0.309017 0.000000
    outer loop
      vertex -10.759624 -2.287029 -3.500000
      vertex -10.759624 -2.287029 3.500000
      vertex -10.049000 -4.474103 -3.500000
    endloop
  endfacet
  facet normal 0.866025 0.500000 0.000000
    outer loop
      vertex 13.600000 -15.500000 3.500000
      vertex 14.550000 -17.145448 3.500000
      vertex 14.550000 -17.145448 -3.500000
    endloop
  endfacet
  facet normal 0.866025 0.500000 0.000000
    outer loop
      vertex 13.600000 -15.500000 -3.500000
      vertex 13.600000 -15.500000 3.500000
      vertex 14.550000 -17.145448 -3.500000
    endloop
  endfacet
  facet normal 0.866025 -0.500000 0.000000
    outer loop
      vertex 14.550000 -13.854552 -3.500000
      vertex 14.550000 -13.854552 3.500000
      vertex 13.600000 -15.500000 3.500000
    endloop
  endfacet
  facet normal 0.866025 -0.500000 0.000000
    outer loop
      vertex 13.600000 -15.500000 -3.500000
      vertex 14.550000 -13.854552 -3.500000
      vertex 13.600000 -15.500000 3.500000
    endloop
  endfacet
  facet normal 0.000000 -1.000000 0.000000
    outer loop
      vertex 16.450000 -13.854552 -3.500000
      vertex 16.450000 -13.854552 3.500000
      vertex 14.550000 -13.854552 3.500000
    endloop
  endfacet
  facet normal -0.000000 -1.000000 -0.000000
    outer loop
      vertex 14.550000 -13.854552 -3.500000
      vertex 16.450000 -13.854552 -3.500000
      vertex 14.550000 -13.854552 3.500000
    endloop
  endfacet
  facet normal -0.866025 -0.500000 0.000000
    outer loop
      vertex 17.400000 -15.500000 3.500000
      vertex 16.450000 -13.854552 3.500000
      vertex 17.400000 -15.500000 -3.500000
    endloop
  endfacet
  facet normal -0.866025 -0.500000 0.000000
    outer loop
      vertex 17.400000 -15.500000 -3.500000
      vertex 16.450000 -13.854552 3.500000
      vertex 16.450000 -13.854552 -3.500000
    endloop
  endfacet
  facet normal -0.866025 0.500000 0.000000
    outer loop
      vertex 17.400000 -15.500000 3.500000
      vertex 17.400000 -15.500000 -3.500000
      vertex 16.450000 -17.145448 3.500000
    endloop
  endfacet
  facet normal -0.866025 0.500000 0.000000
    outer loop
      vertex 16.450000 -17.145448 3.500000
      vertex 17.400000 -15.500000 -3.500000
      vertex 16.450000 -17.145448 -3.500000
    endloop
  endfacet
  facet normal 0.000000 1.000000 0.000000
    outer loop
      vertex 16.450000 -17.145448 3.500000
      vertex 16.450000 -17.145448 -3.500000
      vertex 14.550000 -17.145448 3.500000
    endloop
  endfacet
  facet normal 0.000000 1.000000 -0.000000
    outer loop
      vertex 14.550000 -17.145448 3.500000
      vertex 16.450000 -17.145448 -3.500000
      vertex 14.550000 -17.145448 -3.500000
    endloop
  endfacet
  facet normal 0.866025 0.500000 0.000000
    outer loop
      vertex 13.600000 15.500000 3.500000
      vertex 14.550000 13.854552 3.500000
      vertex 14.550000 13.854552 -3.500000
    endloop
  endfacet
  facet normal 0.866025 0.500000 0.000000
    outer loop
      vertex 13.600000 15.500000 -3.500000
      vertex 13.600000 15.500000 3.500000
      vertex 14.550000 13.854552 -3.500000
    endloop
  endfacet
  facet normal 0.866025 -0.500000 0.000000
    outer loop
      vertex 14.550000 17.145448 -3.500000
      vertex 14.550000 17.145448 3.500000
      vertex 13.600000 15.500000 3.500000
    endloop
  endfacet
  facet normal 0.866025 -0.500000 0.000000
    outer loop
      vertex 13.600000 15.500000 -3.500000
      vertex 14.550000 17.145448 -3.500000
      vertex 13.600000 15.500000 3.500000
    endloop
  endfacet
  facet normal 0.000000 -1.000000 0.000000
    outer loop
      vertex 16.450000 17.145448 -3.500000
      vertex 16.450000 17.145448 3.500000
      vertex 14.550000 17.145448 3.500000
    endloop
  endfacet
  facet normal -0.000000 -1.000000 -0.000000
    outer loop
      vertex 14.550000 17.145448 -3.500000
      vertex 16.450000 17.145448 -3.500000
      vertex 14.550000 17.145448 3.500000
    endloop
  endfacet
  facet normal -0.866025 -0.500000 0.000000
    outer loop
      vertex 17.400000 15.500000 3.500000
      vertex 16.450000 17.145448 3.500000
      vertex 17.400000 15.500000 -3.500000
    endloop
  endfacet
  facet normal -0.866025 -0.500000 0.000000
    outer loop
      vertex 17.400000 15.500000 -3.500000
      vertex 16.450000 17.145448 3.500000
      vertex 16.450000 17.145448 -3.500000
    endloop
  endfacet
  facet normal -0.866025 0.500000 0.000000
    outer loop
      vertex 17.400000 15.500000 3.500000
      vertex 17.400000 15.500000 -3.500000
      vertex 16.450000 13.854552 3.500000
    endloop
  endfacet
  facet normal -0.866025 0.500000 0.000000
    outer loop
      vertex 16.450000 13.854552 3.500000
      vertex 17.400000 15.500000 -3.500000
      vertex 16.450000 13.854552 -3.500000
    endloop
  endfacet
  facet normal 0.000000 1.000000 0.000000
    outer loop
      vertex 16.450000 13.854552 3.500000
      vertex 16.450000 13.854552 -3.500000
      vertex 14.550000 13.854552 3.500000
    endloop
  endfacet
  facet normal 0.000000 1.000000 -0.000000
    outer loop
      vertex 14.550000 13.854552 3.500000
      vertex 16.450000 13.854552 -3.500000
      vertex 14.550000 13.854552 -3.500000
    endloop
  endfacet
  facet normal 1.000000 0.000000 0.000000
    outer loop
      vertex 30.717868 -15.345456 -3.500000
      vertex 30.717868 -15.345456 3.500000
      vertex 30.717868 -17.254544 3.500000
    endloop
  endfacet
  facet normal 1.000000 0.000000 0.000000
    outer loop
      vertex 30.717868 -17.254544 -3.500000
      vertex 30.717868 -15.345456 -3.500000
      vertex 30.717868 -17.254544 3.500000
    endloop
  endfacet
  facet normal 0.623490 -0.781832 0.000000
    outer loop
      vertex 32.210454 -14.155159 -3.500000
      vertex 32.210454 -14.155159 3.500000
      vertex 30.717868 -15.345456 3.500000
    endloop
  endfacet
  facet normal 0.623490 -0.781832 0.000000
    outer loop
      vertex 30.717868 -15.345456 -3.500000
      vertex 32.210454 -14.155159 -3.500000
      vertex 30.717868 -15.345456 3.500000
    endloop
  endfacet
  facet normal -0.222521 -0.974928 -0.000000
    outer loop
      vertex 34.071678 -14.579971 -3.500000
      vertex 34.071678 -14.579971 3.500000
      vertex 32.210454 -14.155159 3.500000
    endloop
  endfacet
  facet normal -0.222521 -0.974928 -0.000000
    outer loop
      vertex 32.210454 -14.155159 -3.500000
      vertex 34.071678 -14.579971 -3.500000
      vertex 32.210454 -14.155159 3.500000
    endloop
  endfacet
  facet normal -0.900969 -0.433884 0.000000
    outer loop
      vertex 34.900000 -16.300000 3.500000
      vertex 34.071678 -14.579971 3.500000
      vertex 34.900000 -16.300000 -3.500000
    endloop
  endfacet
  facet normal -0.900969 -0.433884 0.000000
    outer loop
      vertex 34.900000 -16.300000 -3.500000
      vertex 34.071678 -14.579971 3.500000
      vertex 34.071678 -14.579971 -3.500000
    endloop
  endfacet
  facet normal -0.900969 0.433884 0.000000
    outer loop
      vertex 34.900000 -16.300000 3.500000
      vertex 34.900000 -16.300000 -3.500000
      vertex 34.071678 -18.020029 3.500000
    endloop
  endfacet
  facet normal -0.900969 0.433884 0.000000
    outer loop
      vertex 34.071678 -18.020029 3.500000
      vertex 34.900000 -16.300000 -3.500000
      vertex 34.071678 -18.020029 -3.500000
    endloop
  endfacet
  facet normal -0.222521 0.974928 0.000000
    outer loop
      vertex 34.071678 -18.020029 3.500000
      vertex 34.071678 -18.020029 -3.500000
      vertex 32.210454 -18.444841 3.500000
    endloop
  endfacet
  facet normal -0.222521 0.974928 0.000000
    outer loop
      vertex 32.210454 -18.444841 3.500000
      vertex 34.071678 -18.020029 -3.500000
      vertex 32.210454 -18.444841 -3.500000
    endloop
  endfacet
  facet normal 0.623490 0.781832 -0.000000
    outer loop
      vertex 32.210454 -18.444841 3.500000
      vertex 32.210454 -18.444841 -3.500000
      vertex 30.717868 -17.254544 3.500000
    endloop
  endfacet
  facet normal 0.623490 0.781832 -0.000000
    outer loop
      vertex 30.717868 -17.254544 3.500000
      vertex 32.210454 -18.444841 -3.500000
      vertex 30.717868 -17.254544 -3.500000
    endloop
  endfacet
  facet normal 0.623490 -0.781832 0.000000
    outer loop
      vertex 32.210454 18.444841 -3.500000
      vertex 32.210454 18.444841 3.500000
      vertex 30.717868 17.254544 3.500000
    endloop
  endfacet
  facet normal 0.623490 -0.781832 0.000000
    outer loop
      vertex 30.717868 17.254544 -3.500000
      vertex 32.210454 18.444841 -3.500000
      vertex 30.717868 17.254544 3.500000
    endloop
  endfacet
  facet normal 1.000000 0.000000 0.000000
    outer loop
      vertex 30.717868 17.254544 -3.500000
      vertex 30.717868 17.254544 3.500000
      vertex 30.717868 15.345456 3.500000
    endloop
  endfacet
  facet normal 1.000000 0.000000 0.000000
    outer loop
      vertex 30.717868 15.345456 -3.500000
      vertex 30.717868 17.254544 -3.500000
      vertex 30.717868 15.345456 3.500000
    endloop
  endfacet
  facet normal -0.222521 -0.974928 -0.000000
    outer loop
      vertex 34.071678 18.020029 -3.500000
      vertex 34.071678 18.020029 3.500000
      vertex 32.210454 18.444841 3.500000
    endloop
  endfacet
  facet normal -0.222521 -0.974928 -0.000000
    outer loop
      vertex 32.210454 18.444841 -3.500000
      vertex 34.071678 18.020029 -3.500000
      vertex 32.210454 18.444841 3.500000
    endloop
  endfacet
  facet normal -0.900969 -0.433884 0.000000
    outer loop
      vertex 34.900000 16.300000 3.500000
      vertex 34.071678 18.020029 3.500000
      vertex 34.900000 16.300000 -3.500000
    endloop
  endfacet
  facet normal -0.900969 -0.433884 0.000000
    outer loop
      vertex 34.900000 16.300000 -3.500000
      vertex 34.071678 18.020029 3.500000
      vertex 34.071678 18.020029 -3.500000
    endloop
  endfacet
  facet normal -0.900969 0.433884 0.000000
    outer loop
      vertex 34.900000 16.300000 3.500000
      vertex 34.900000 16.300000 -3.500000
      vertex 34.071678 14.579971 3.500000
    endloop
  endfacet
  facet normal -0.900969 0.433884 0.000000
    outer loop
      vertex 34.071678 14.579971 3.500000
      vertex 34.900000 16.300000 -3.500000
      vertex 34.071678 14.579971 -3.500000
    endloop
  endfacet
  facet normal -0.222521 0.974928 0.000000
    outer loop
      vertex 34.071678 14.579971 3.500000
      vertex 34.071678 14.579971 -3.500000
      vertex 32.210454 14.155159 3.500000
    endloop
  endfacet
  facet normal -0.222521 0.974928 0.000000
    outer loop
      vertex 32.210454 14.155159 3.500000
      vertex 34.071678 14.579971 -3.500000
      vertex 32.210454 14.155159 -3.500000
    endloop
  endfacet
  facet normal 0.623490 0.781832 -0.000000
    outer loop
      vertex 32.210454 14.155159 3.500000
      vertex 32.210454 14.155159 -3.500000
      vertex 30.717868 15.345456 3.500000
    endloop
  endfacet
  facet normal 0.623490 0.781832 -0.000000
    outer loop
      vertex 30.717868 15.345456 3.500000
      vertex 32.210454 14.155159 -3.500000
      vertex 30.717868 15.345456 -3.500000
    endloop
  endfacet
endsolid OpenSCAD_Model
